<?xml version="1.0" encoding="utf-8"?>
<!-- Generator: Adobe Illustrator 19.0.0, SVG Export Plug-In . SVG Version: 6.00 Build 0)  -->
<svg version="1.1" id="Camada_1" xmlns="http://www.w3.org/2000/svg" xmlns:xlink="http://www.w3.org/1999/xlink" x="0px" y="0px"
	 viewBox="0 0 300 276.4" style="enable-background:new 0 0 300 276.4;" xml:space="preserve">
<style type="text/css">
	.st0{fill:#CF5480;}
	.st1{fill:#CE3F7B;}
	.st2{fill:#D46C9B;}
</style>
<g id="XMLID_27_">
	<g id="XMLID_78_">
		<path id="XMLID_31_" class="st0" d="M300,86.6c0-0.2,0-0.5,0-0.7C300,41,267.6,0,218.8,0c-38.7,0-61.2,27.8-68.8,53.9l0,0
			C142.3,27.8,119.9,0,81.2,0C32.4,0,0,41,0,85.9c0,0.2,0,0.5,0,0.7c-0.3,9.8,0,109,149.9,189.8v0l0,0l0,0l0,0l0,0v0
			C300,195.5,300.2,96.3,300,86.6z"/>
	</g>
	<g id="XMLID_29_">
		<path id="XMLID_30_" class="st1" d="M96,242.1c15.4,11.6,33.3,23.1,54,34.3v0l0,0l0,0l0,0l0,0v0C300,195.5,300.2,96.3,300,86.6
			c0-0.2,0-0.5,0-0.7c0-5.7-0.5-11.3-1.5-16.8C251.2,183.1,157.4,226,96,242.1z"/>
	</g>
	<g id="XMLID_28_">
		<path id="XMLID_34_" class="st2" d="M8.3,96.1c0,0-1-85.4,87.6-86.4C96,9.7,35.6,24.3,8.3,96.1z"/>
	</g>
</g>
</svg>
