<?xml version="1.0" encoding="utf-8"?>
<!-- Generator: Adobe Illustrator 19.0.0, SVG Export Plug-In . SVG Version: 6.00 Build 0)  -->
<svg version="1.1" id="Camada_1" xmlns="http://www.w3.org/2000/svg" xmlns:xlink="http://www.w3.org/1999/xlink" x="0px" y="0px"
	 viewBox="0 0 500 470.9" style="enable-background:new 0 0 500 470.9;" xml:space="preserve">
<style type="text/css">
	.st0{fill:#231F20;}
</style>
<g id="XMLID_90_">
	<path id="XMLID_104_" class="st0" d="M250.1,257.5c-28.2-0.7-52,23.1-52,52.1c0,28.5,23.3,51.6,51.4,51.9
		c28.6,0.2,52.5-22.7,52.9-51C302.9,279.8,277.8,256.8,250.1,257.5z M436.6,366.9c-1.6-17.8-8-33.5-21.2-46.3
		c-15-14.5-32.3-25.7-50.7-35.2c-4.7-2.4-8.4-5.5-11.7-9.5c-10.6-12.9-19.3-27.2-28.2-41.3c-6.9-11.1-16-19.3-27.6-24.8
		c-15.7-7.4-32.4-10.7-49.5-11.9c-11.4-0.8-22.7,1.6-33.9,4.5c-12.9,3.4-23.4,10-31,21.1c-6.7,9.7-11.7,20.3-17.2,30.7
		c-1.5,2.8-3.1,5.6-5.2,8c-6.2,7.6-14.3,12.8-22.9,17c-14,6.8-27.3,14.8-38.9,25.4c-20,18.5-33.5,40.3-35.5,68.2
		c-1.9,27.2,7.3,49.8,27.8,67.7c8.3,7.2,18.2,11.9,27.9,16.9c13.7,7,28.1,12.2,43.7,12.9c0.3,0,17.5,0.2,17.8,0.2
		c7,0,13.7-1.7,20.5-3.4c10.9-2.9,21.6-6.6,32.4-9.8c5.5-1.6,11.1-2.8,16.9-2.7c9.4,0.2,18.4,2.3,27.4,5c10.9,3.3,21.8,6.9,33,9.3
		c5.1,1.1,10.2,1.3,15.4,1.9c1.1,0,12.9,0,13.8-0.4c20.3-1.5,39-7.8,56.2-18.6c7.5-4.8,15.1-9.7,20.6-16.8
		C432.1,415,438.9,392.3,436.6,366.9z M280.9,376.3c-6.2,2.9-12.8,4.7-19.6,5.8c-0.9,0.1-1.1,0.4-1.1,1.2c0,4,0.1,8.1,0,12.1
		c0,1,0.4,1.2,1.3,1.2c5.1,0,10.1,0,15.2,0c1.1,0,1.4,0.3,1.4,1.4c-0.1,5.5-0.1,11.1,0,16.6c0,1.2-0.4,1.4-1.5,1.4c-5-0.1-10,0-15,0
		c-1,0-1.3,0.2-1.3,1.3c0.1,4.6,0,9.3,0,13.9c0,1.1-0.2,1.6-1.5,1.6c-5.4-0.1-10.7-0.1-16.1,0c-1,0-1.3-0.2-1.3-1.3
		c0.1-4.8,0-9.5,0.1-14.3c0-1-0.3-1.3-1.3-1.3c-4.9,0.1-9.7,0-14.6,0.1c-1.3,0-1.5-0.4-1.5-1.6c0.1-2.7,0-5.4,0-8.1
		c0-2.8,0.1-5.6,0-8.4c0-1.1,0.4-1.4,1.4-1.4c4.9,0,9.7,0,14.6,0c1,0,1.4-0.2,1.4-1.3c-0.1-3.8-0.1-7.5,0-11.3
		c0-1.3-0.4-1.6-1.6-1.8c-8.3-1-16.3-3.3-23.6-7.3c-20.2-11.1-33.5-27.6-37.9-50.4c-4.1-21.1-0.4-41,12.7-58.5
		c11.1-14.8,25.5-25.1,44-28.4c25.1-4.6,47.5,1.2,66,19.3c10,9.7,17,21.2,20.1,34.9C329.6,328.3,312.2,361.6,280.9,376.3z"/>
	<g id="XMLID_73_">
		<path id="XMLID_102_" class="st0" d="M499.2,196.3c-4.6,31.9-18.5,58.8-42.4,80.5c-6.6,5.9-13.3,11.7-21.6,15.1
			c-13.2,5.4-26.4,4.1-39.4-0.9c-5.3-2-10.1-5-14.8-8c-3.7-2.3-6.3-5.7-8.4-9.5c-8.1-14.8-12.1-30.5-11.1-47.4
			c0.6-9.9,3.3-19.3,7.1-28.4c5.5-13.1,11.3-26.1,19.8-37.7c10.2-13.8,22.8-24.9,38.7-32c26-11.6,56.2,1.1,67.9,26.9
			c2.9,6.4,4.5,13.1,5.1,20C500,175.6,499.6,193.7,499.2,196.3z"/>
		<path id="XMLID_101_" class="st0" d="M262.5,99.4c-0.5,16.1-1.1,32.3-6,47.9c-3.5,10.9-8.4,21.1-16.9,29.1c-9.6,8.9-20.6,15-34,16
			c-11.1,0.8-21.2-2.1-30.7-7.7c-13-7.7-22.5-18.7-30.6-31.2c-10.1-15.7-17.7-32.4-21.2-50.9c-4.3-22.8-1.9-44.7,9-65.4
			c5.4-10.3,13.6-18,23.5-24c11.5-7,23.8-11.8,37.4-13c12.1-1.1,22.8,3.1,32.6,9.7c11.8,7.9,19.8,19,25.8,31.7
			c5.4,11.4,8,23.6,9.7,36C262.1,84.8,262.6,92.1,262.5,99.4z"/>
		<path id="XMLID_99_" class="st0" d="M407.6,68.6c-0.1,21.2-4,41.7-13.4,60.8c-9,18.3-19.9,35.3-35.4,48.9
			c-8.3,7.3-17.6,12.6-28.8,14.4c-10.6,1.7-20.3-0.8-29.2-6.4c-11-6.9-18.4-16.9-24.9-27.8c-4.8-7.9-6.5-16.5-7.9-25.3
			c-2.1-13.4-2.8-26.8-1.4-40.3c1.6-15.5,6-30,14.4-43.3c7.2-11.4,15.3-21.8,25.8-30.3c13.6-10.9,28.9-17,46.6-15.8
			c25.1,1.7,49.4,19.6,53.5,48.1c0.4,2.8,0.5,5.6,0.6,8.4C407.7,63,407.6,65.8,407.6,68.6z"/>
		<path id="XMLID_74_" class="st0" d="M87.5,289.6c-16.8-0.1-30.7-5.4-43.1-14.9c-10.1-7.7-18.4-17-24.3-28.3
			c-8.4-16-15.3-32.5-18.3-50.4c-2.4-14.2-2.9-28.5,1.7-42.3C9.4,136,20.2,122.3,38,115.2c11-4.4,22.3-3.9,33.8-1.9
			c21.8,3.8,37.7,16.4,50.4,33.8c12.2,16.7,19.9,35.5,25.4,55.2c2.7,9.5,4.7,19.1,4.1,29c-1.4,22.5-11.8,39.2-32.3,49.2
			c-6.2,3-12.2,6.1-19,7.5C95.7,289,91.1,289.5,87.5,289.6z"/>
	</g>
</g>
</svg>
