<?xml version="1.0" encoding="utf-8"?>
<!-- Generator: Adobe Illustrator 19.0.0, SVG Export Plug-In . SVG Version: 6.00 Build 0)  -->
<svg version="1.1" id="Camada_1" xmlns="http://www.w3.org/2000/svg" xmlns:xlink="http://www.w3.org/1999/xlink" x="0px" y="0px"
	 viewBox="0 0 500 470.9" style="enable-background:new 0 0 500 470.9;" xml:space="preserve">
<style type="text/css">
	.st0{fill:#231F20;}
</style>
<g id="XMLID_92_">
	<path id="XMLID_108_" class="st0" d="M243.3,300.8c-26.1-0.5-47.5,20.6-47.5,46.3c0,25.7,21.2,46.4,45.6,46.7
		c26.9,0.4,48.1-21.6,47.6-46.7C289.5,322,268.3,301.3,243.3,300.8z M436.8,366.7c-1.6-17.8-8-33.5-21.2-46.2
		c-15-14.5-32.2-25.7-50.7-35.1c-4.7-2.4-8.4-5.5-11.7-9.5c-10.6-12.9-19.3-27.2-28.2-41.3c-6.9-11.1-15.9-19.3-27.6-24.8
		c-15.6-7.4-32.4-10.6-49.5-11.8c-11.4-0.8-22.7,1.6-33.8,4.5c-12.9,3.4-23.4,10-31,21.1c-6.7,9.7-11.7,20.3-17.2,30.6
		c-1.5,2.8-3.1,5.6-5.2,8c-6.2,7.6-14.3,12.8-22.9,17c-14,6.8-27.3,14.8-38.8,25.4c-20,18.5-33.5,40.3-35.5,68.1
		c-1.9,27.2,7.3,49.8,27.8,67.7c8.3,7.2,18.2,11.9,27.9,16.9c13.7,7,28.1,12.2,43.7,12.9c0.3,0,17.5,0.2,17.8,0.2
		c7,0,13.7-1.7,20.4-3.4c10.9-2.9,21.6-6.6,32.4-9.8c5.5-1.6,11.1-2.8,16.9-2.7c9.4,0.2,18.4,2.3,27.3,5c10.9,3.3,21.8,6.9,33,9.3
		c5.1,1.1,10.2,1.3,15.3,1.9c1.1,0,12.9,0,13.7-0.4c20.3-1.5,39-7.8,56.2-18.6c7.5-4.8,15.1-9.7,20.6-16.8
		C432.2,414.8,439.1,392,436.8,366.7z M323,285.6c-2.9,2.7-5.8,5.4-8.8,8.3c-0.6-4.7-1.1-9.1-1.7-13.8c-1,1.1-1.8,1.9-2.7,2.8
		c-6,6.4-11.9,12.9-17.9,19.3c-0.8,0.8-0.7,1.2,0,2c7.3,8.5,12.4,18.2,14.5,29.2c3.9,20.8-0.2,39.7-14.4,55.9
		c-8.7,9.9-19.3,16.9-32.1,20.3c-8.3,2.2-16.7,2.7-25.2,1.8c-11.6-1.2-22-5.1-31.3-12.1c-12.5-9.5-21.4-21.5-24.6-37
		c-4.7-22.4-0.4-42.7,15.5-59.8c9.4-10.2,20.9-16.9,34.6-19.5c15.7-2.9,30.8-1,44.9,6.7c0.9,0.5,1.4,0.5,2.2-0.3
		c7.2-7,14.5-14,21.8-20.9c0.4-0.4,0.9-0.8,1.6-1.5c-4.7-0.4-9-0.8-13.4-1.2c0.3-0.7,0.8-1.1,1.3-1.6c2.1-2.2,4.2-4.4,6.2-6.6
		c0.5-0.6,1-0.8,1.8-0.8c8.9,0,17.9,0,26.8,0c1.1,0,1.3,0.3,1.3,1.3c0,8.7,0,17.3,0,26C323.4,284.5,323.5,285.1,323,285.6z"/>
	<g id="XMLID_91_">
		<path id="XMLID_136_" class="st0" d="M499.2,196.5c-4.6,31.9-18.5,58.8-42.4,80.5c-6.6,5.9-13.3,11.7-21.6,15.1
			c-13.2,5.4-26.4,4.1-39.4-0.9c-5.3-2-10.1-5-14.8-8c-3.7-2.3-6.3-5.7-8.4-9.5c-8.1-14.8-12.1-30.5-11.1-47.4
			c0.6-9.9,3.3-19.3,7.1-28.4c5.5-13.1,11.3-26.1,19.8-37.7c10.2-13.8,22.8-24.9,38.7-32c26-11.6,56.2,1.1,67.9,26.9
			c2.9,6.4,4.5,13.1,5.1,20C500,175.9,499.6,194,499.2,196.5z"/>
		<path id="XMLID_87_" class="st0" d="M262.5,99.7c-0.5,16.1-1.1,32.3-6,47.9c-3.5,10.9-8.4,21.1-16.9,29.1c-9.6,8.9-20.6,15-34,16
			c-11.1,0.8-21.2-2.1-30.7-7.7c-13-7.7-22.5-18.7-30.6-31.2c-10.1-15.7-17.7-32.4-21.2-50.9c-4.3-22.8-1.9-44.7,9-65.4
			c5.4-10.3,13.6-18,23.5-24c11.5-7,23.8-11.8,37.4-13c12.1-1.1,22.8,3.1,32.6,9.7c11.8,7.9,19.8,19,25.8,31.7
			c5.4,11.4,8,23.6,9.7,36C262.1,85.1,262.6,92.4,262.5,99.7z"/>
		<path id="XMLID_74_" class="st0" d="M407.6,68.9c-0.1,21.2-4,41.7-13.4,60.8c-9,18.3-19.9,35.3-35.4,48.9
			c-8.3,7.3-17.6,12.6-28.8,14.4c-10.6,1.7-20.3-0.8-29.2-6.4c-11-6.9-18.4-16.9-24.9-27.8c-4.8-7.9-6.5-16.5-7.9-25.3
			c-2.1-13.4-2.8-26.8-1.4-40.3c1.6-15.5,6-30,14.4-43.3c7.2-11.4,15.3-21.8,25.8-30.3c13.6-10.9,28.9-17,46.6-15.8
			C378.6,5.6,402.8,23.5,407,52c0.4,2.8,0.5,5.6,0.6,8.4C407.7,63.3,407.6,66.1,407.6,68.9z"/>
		<path id="XMLID_73_" class="st0" d="M87.5,289.9c-16.8-0.1-30.7-5.4-43.1-14.9c-10.1-7.7-18.4-17-24.3-28.3
			c-8.4-16-15.3-32.5-18.3-50.4c-2.4-14.2-2.9-28.5,1.7-42.3c5.9-17.7,16.7-31.4,34.5-38.5c11-4.4,22.3-3.9,33.8-1.9
			c21.8,3.8,37.7,16.4,50.4,33.8c12.2,16.7,19.9,35.5,25.4,55.2c2.7,9.5,4.7,19.1,4.1,29c-1.4,22.5-11.8,39.2-32.3,49.2
			c-6.2,3-12.2,6.1-19,7.5C95.7,289.3,91.1,289.8,87.5,289.9z"/>
	</g>
</g>
</svg>
